<?xml version="1.0" encoding="UTF-8"?>
<!DOCTYPE svg PUBLIC "-//W3C//DTD SVG 1.1//EN" "http://www.w3.org/Graphics/SVG/1.1/DTD/svg11.dtd">
<!-- Creator: CorelDRAW X7 -->
<svg xmlns="http://www.w3.org/2000/svg" xml:space="preserve" width="1.24557in" height="0.325457in" version="1.1" style="shape-rendering:geometricPrecision; text-rendering:geometricPrecision; image-rendering:optimizeQuality; fill-rule:evenodd; clip-rule:evenodd"
viewBox="0 0 204153 53344"
 xmlns:xlink="http://www.w3.org/1999/xlink">
 <defs>
  <style type="text/css">
   <![CDATA[
    .fil0 {fill:#141615}
    .fil1 {fill:#868887}
   ]]>
  </style>
 </defs>
 <g id="Layer_x0020_1">
  <metadata id="CorelCorpID_0Corel-Layer"/>
  <g id="_400330664">
   <path class="fil0" d="M6263 9476l6687 -3348c-227,1242 -8308,13599 2876,17241 -10,-4083 -615,-14982 553,-18112 2258,-2766 25566,-3578 25326,21122 -102,10398 -4958,19890 -15023,21869 -5214,1026 -6914,-1010 -10953,-629 -1244,-5385 -4641,-11158 -9082,-13380 -936,3993 320,7688 -1199,11339 -1543,3710 -4321,4524 -5448,6792 8910,1506 28203,531 35793,-2640 8297,-3466 15914,-11176 16328,-22798 1076,-30106 -26125,-26940 -51740,-26750 1032,2571 3990,2953 5882,9294z"/>
   <path class="fil0" d="M99876 52410c1171,-4538 353,-27788 353,-34239l-6645 -42 205 19743 -80 3426 -6221 -11939c-2142,-3719 -4105,-7825 -6548,-11461l-9108 -16 115 34545 7193 -2 -192 -24572 13367 24544 7561 13z"/>
   <path class="fil0" d="M127657 44457c-7189,7892 -19278,-3235 -11441,-18079 -1001,-945 -1601,-1321 -2221,-2777l-1157 -3302c-6371,4080 -10148,15330 -5122,24814 3651,6891 14068,11209 23105,5771 13607,-8190 11148,-40010 -16444,-31629 -261,3789 900,4538 2388,6435 2762,-1101 8499,-4970 12374,2950 2301,4702 1658,12370 -1482,15817z"/>
   <path class="fil0" d="M152028 23665c4433,-290 9448,-514 9201,4814 -216,4628 -4619,4768 -9291,4783l90 -9597zm11254 12526c2289,-2121 4664,-2373 5529,-6756 784,-3972 -837,-7250 -2998,-9083 -4544,-3855 -14985,-3187 -21657,-1871l61 33918 7711 -122 93 -13362c7061,22 6868,1294 8384,7540 1826,7522 1229,6130 9651,5943 -341,-2445 -1690,-6729 -2429,-9342 -1217,-4302 -1885,-4547 -4345,-6865z"/>
   <path class="fil0" d="M188085 24151l3779 13629 -7484 -30 3705 -13599zm-5008 19422l10048 20 2730 8835 8298 -83 -10828 -34444 -9896 -3c-1841,3759 -9917,30020 -10584,34540l7847 -51 2385 -8814z"/>
   <polygon class="fil0" points="57361,52429 65079,52209 64965,17931 57286,17943 "/>
   <path class="fil0" d="M7052 13962c497,-1987 742,-1743 1643,-3512 -5012,2824 -8662,11445 -4535,18177 2337,3812 5915,5099 9934,10258 1171,1502 1441,2693 2894,3878 590,-7115 -5375,-10649 -8676,-13922 -5710,-5662 -4422,-12447 -1260,-14879z"/>
   <path class="fil0" d="M7052 13962c-530,5799 -1428,6321 2123,10759 1632,2040 5170,6355 7092,7309 1273,-10857 -9045,-6601 -7754,-19422l-1461 1354z"/>
   <path class="fil1" d="M93789 37872l-205 -19743 6645 42c0,6451 818,29701 -353,34239 1008,-827 764,1246 911,-1498l-205 -33248 -7218 145c-785,3396 -764,17530 425,20063z"/>
  </g>
 </g>
</svg>
